
        <svg xmlns="http://www.w3.org/2000/svg" xmlns:xlink="http://www.w3.org/1999/xlink" version="1.1" width="3168.5393258426966" 
        height="1247.191011235955" viewBox="0 0 3168.5393258426966 1247.191011235955">
			
			<g transform="scale(8.426966292134832) translate(10, 10)">
				<defs id="SvgjsDefs5262"></defs><g id="SvgjsG5263" featureKey="symbolFeature-0" transform="matrix(1.4343166428638885,0,0,1.4343166428638885,-20.56027939147033,-6.535927130341358)" fill="#000000"><g xmlns="http://www.w3.org/2000/svg"><g><polygon fill="#000000" points="46.577,39.567 43.928,49.44 49.002,67.868 54.075,50.14 50.966,39.575   "></polygon><rect x="40.063" y="31.127" transform="matrix(0.5331 -0.846 0.846 0.5331 -7.3173 49.1027)" fill="#000000" width="1.539" height="0.109"></rect><rect x="39.711" y="32.104" transform="matrix(-0.8462 -0.5328 0.5328 -0.8462 55.9015 81.8804)" fill="#000000" width="0.109" height="1.539"></rect><rect x="41.129" y="29.435" transform="matrix(0.5331 -0.846 0.846 0.5331 -5.3877 49.2152)" fill="#000000" width="1.539" height="0.109"></rect><rect x="42.196" y="27.743" transform="matrix(0.5329 -0.8462 0.8462 0.5329 -3.4526 49.3402)" fill="#000000" width="1.538" height="0.109"></rect><rect x="43.262" y="26.05" transform="matrix(0.5331 -0.846 0.846 0.5331 -1.5288 49.4396)" fill="#000000" width="1.539" height="0.109"></rect><rect x="44.328" y="24.358" transform="matrix(0.5329 -0.8462 0.8462 0.5329 0.4075 49.5635)" fill="#000000" width="1.538" height="0.108"></rect><rect x="56.47" y="28.72" transform="matrix(-0.8495 0.5276 -0.5276 -0.8495 120.101 24.7187)" fill="#000000" width="0.109" height="1.539"></rect><rect x="55.404" y="27.028" transform="matrix(-0.8403 0.5421 -0.5421 -0.8403 117.1298 21.0898)" fill="#000000" width="0.108" height="1.539"></rect><rect x="57.537" y="30.412" transform="matrix(-0.845 0.5348 -0.5348 -0.845 122.9313 26.726)" fill="#000000" width="0.109" height="1.539"></rect><rect x="58.549" y="32.118" transform="matrix(-0.8415 0.5402 -0.5402 -0.8415 125.6177 28.7197)" fill="#000000" width="0.094" height="1.336"></rect><rect x="52.557" y="24.358" transform="matrix(-0.5331 -0.846 0.846 -0.5331 61.1023 82.5434)" fill="#000000" width="1.539" height="0.109"></rect><rect x="54.338" y="25.336" transform="matrix(-0.8429 0.538 -0.538 -0.8429 114.2867 18.8443)" fill="#000000" width="0.109" height="1.539"></rect><path fill="#000000" d="M83.872,8.819H67.381c-1.444,4.706-13.413,43.812-17.637,60.5l-0.635,2.511l-0.636-2.511    c-4.219-16.689-16.288-55.803-17.741-60.5H14.638c-1.292,5.064,1.781,14.108,4.702,21.594c3.135,0.639,7.056,2.381,8.72,6.99    c1.182,3.275,0.665,6.651-1.494,9.787c1.342,2.87,2.287,4.79,2.391,5.002c0.886,1.529,3.416,6.344,6.614,12.431    c4.459,8.485,10.008,19.046,13.267,24.798l0.27,0.472l0.271-0.472c3.256-5.746,8.805-16.304,13.263-24.785    c3.2-6.089,5.731-10.903,6.617-12.433c0.104-0.207,1.047-2.119,2.391-4.989c-2.155-3.13-2.673-6.499-1.495-9.763    c1.325-3.667,4.414-6.155,8.722-7.037C81.565,23.521,84.87,14.057,83.872,8.819z"></path><path fill="#000000" d="M44.95,21.504c0.489,0.419,0.778,1.056,0.838,1.71l-0.08,0.127l0.091,0.057    c0.013,0.479-0.096,0.957-0.342,1.357l-5.697,9.236c0.149,0.499,0.299,1,0.45,1.503c0.221-0.19,0.428-0.438,0.614-0.739    l3.012-4.883l1.893,7.867c0.123,0.505,0.648,0.89,1.168,0.89h3.991c0.521,0,1.056-0.416,1.191-0.917l2.227-8.283l3.285,5.326    c0.133,0.215,0.276,0.401,0.428,0.56c0.158-0.533,0.315-1.063,0.473-1.591l-5.533-8.97c-0.249-0.403-0.356-0.886-0.342-1.369    l0.008,0.013l0.093-0.059l-0.089-0.141c0.064-0.649,0.352-1.281,0.837-1.697l11.749-10.08c0.295-0.968,0.537-1.757,0.714-2.334    L52.612,20.513c-1.001,0.858-1.452,2.264-1.258,3.56h-4.296c0.195-1.296-0.256-2.702-1.258-3.56L32.079,8.74    c0.165,0.531,0.41,1.328,0.723,2.342L44.95,21.504z"></path></g></g></g><g id="SvgjsG5264" featureKey="textGroupContainer" transform="matrix(1,0,0,1,355,0)" fill="#000000"><rect xmlns="http://www.w3.org/2000/svg" y="0" height="1" width="1" opacity="0"></rect><rect xmlns="http://www.w3.org/2000/svg" y="0" x="-235" width="3" height="128"></rect></g><g id="SvgjsG5265" featureKey="vMvB0T-0" transform="matrix(3.240440836125803,0,0,3.240440836125803,133.07453037718594,11.844458679169051)" fill="#000000"><path d="M9.02 11.64 l-0.02 -1.48 l0 -3.82 q0.62 -0.12 1.61 -0.12 t1.59 0.12 l0 13.66 q-0.64 0.12 -1.6 0.12 t-1.6 -0.12 l0 -4.24 l0.02 -1.48 l-1 0.02 l-2.32 0 l-1 -0.02 l0.02 1.48 l0 4.24 q-0.62 0.12 -1.6 0.12 t-1.6 -0.12 l0 -13.66 q0.62 -0.12 1.6 -0.12 t1.6 0.12 l0 3.82 l-0.02 1.48 l1 -0.02 l2.32 0 z M18.560000000000002 17.14 q-0.54 0 -0.8 -0.02 l-0.86 2.9 q-0.48 0.12 -1.34 0.12 q-0.96 0 -1.56 -0.22 l-0.1 -0.16 l4.4 -13.42 q0.78 -0.12 1.82 -0.12 q1.18 0 1.88 0.14 l4.32 13.44 q-0.7 0.38 -1.58 0.38 q-1.04 0 -1.46 -0.36 t-0.72 -1.38 l-0.38 -1.32 q-0.26 0.02 -0.78 0.02 l-2.84 0 z M18.5 14.620000000000001 l0.8 -0.02 l1.46 0 q0.1 0 0.35 0.01 t0.37 0.01 l-0.34 -1.24 q-0.48 -1.68 -1.1 -4.12 l-0.12 0 q-0.16 0.86 -0.96 3.82 z M37.8 10.56 q0 0.66 -0.2 1.25 t-0.53 1.06 t-0.78 0.82 t-0.93 0.53 q1.04 0.38 1.54 1.84 l0.6 1.7 q0.34 1 1 1.48 q-0.3 0.4 -0.9 0.67 t-1.32 0.27 t-1.12 -0.41 t-0.74 -1.43 l-0.72 -2.1 q-0.22 -0.6 -0.59 -0.92 t-1.11 -0.32 l-0.82 0 l0 5 q-0.64 0.12 -1.6 0.12 t-1.58 -0.12 l0 -13.56 l0.14 -0.14 q1.74 -0.04 2.93 -0.06 t1.87 -0.02 q1.1 0 2 0.27 t1.53 0.81 t0.98 1.36 t0.35 1.9 z M31.18 8.62 l0 3.92 q0.9 0 1.54 -0.03 t1.03 -0.24 t0.59 -0.59 t0.2 -1.1 q0 -1.94 -1.88 -1.94 l-0.83 0 t-0.65 -0.02 z M40.34 20 l0 -13.66 q0.62 -0.12 1.6 -0.12 t1.62 0.12 l0 13.66 q-0.64 0.12 -1.62 0.12 t-1.6 -0.12 z M55.480000000000004 19.12 q-0.64 0.52 -1.68 0.76 t-2.3 0.24 q-0.62 0 -1.79 -0.02 t-2.93 -0.06 l-0.14 -0.14 l0 -13.46 l0.14 -0.14 q1.16 -0.04 2.41 -0.06 t2.63 -0.02 q1.7 0 2.84 0.54 t1.82 1.48 t0.96 2.21 t0.28 2.73 q0 2 -0.46 3.46 t-1.78 2.48 z M51.800000000000004 17.62 q2.64 0 2.64 -4.44 q0 -4.46 -2.64 -4.46 l-1.13 0 t-0.85 -0.02 l0 8.94 q0.36 -0.02 0.85 -0.02 l1.13 0 z M60.02000000000001 20 l0 -13.66 q0.62 -0.12 1.6 -0.12 t1.62 0.12 l0 13.66 q-0.64 0.12 -1.62 0.12 t-1.6 -0.12 z"></path></g><g id="SvgjsG5266" featureKey="sloganFeature-0" transform="matrix(0.6028363738383952,0,0,0.6028363738383952,137.83120626375472,83.8290813979961)" fill="#000000"><path d="M0.28 7.359999999999999 l0 -1.72 l11.66 0 l0 1.72 l-4.86 0 l0 12.64 l-1.94 0 l0 -12.64 l-4.86 0 z M19.312 5.640000000000001 l0 14.36 l-1.94 0 l0 -14.36 l1.94 0 z M39.664 20 l-1.88 0 l0 -8.48 c0 -0.42 0.04 -2.24 0.04 -3.58 l-0.04 0 l-4.04 12.06 l-1.92 0 l-4.04 -12.04 l-0.04 0 c0 1.32 0.04 3.14 0.04 3.56 l0 8.48 l-1.88 0 l0 -14.36 l2.78 0 l4.1 12.14 l0.04 0 l4.08 -12.14 l2.76 0 l0 14.36 z M56.75600000000001 18.28 l0 1.72 l-10.6 0 l0 -14.36 l10.46 0 l0 1.72 l-8.52 0 l0 4.4 l7.86 0 l0 1.72 l-7.86 0 l0 4.8 l8.66 0 z M64.568 5.640000000000001 l0 12.64 l7.28 0 l0 1.72 l-9.22 0 l0 -14.36 l1.94 0 z M87.88 18.28 l0 1.72 l-10.6 0 l0 -14.36 l10.46 0 l0 1.72 l-8.52 0 l0 4.4 l7.86 0 l0 1.72 l-7.86 0 l0 4.8 l8.66 0 z M104.232 9.84 l-1.82 0 c-0.1 -2.22 -1.94 -2.92 -3.56 -2.92 c-1.22 0 -3.28 0.34 -3.28 2.52 c0 1.22 0.86 1.62 1.7 1.82 l4.1 0.94 c1.86 0.44 3.26 1.56 3.26 3.84 c0 3.4 -3.16 4.34 -5.62 4.34 c-2.66 0 -3.7 -0.8 -4.34 -1.38 c-1.22 -1.1 -1.46 -2.3 -1.46 -3.64 l1.82 0 c0 2.6 2.12 3.36 3.96 3.36 c1.4 0 3.76 -0.36 3.76 -2.42 c0 -1.5 -0.7 -1.98 -3.06 -2.54 l-2.94 -0.68 c-0.94 -0.22 -3.06 -0.88 -3.06 -3.38 c0 -2.24 1.46 -4.44 4.94 -4.44 c5.02 0 5.52 3 5.6 4.58 z M120.904 9.84 l-1.82 0 c-0.1 -2.22 -1.94 -2.92 -3.56 -2.92 c-1.22 0 -3.28 0.34 -3.28 2.52 c0 1.22 0.86 1.62 1.7 1.82 l4.1 0.94 c1.86 0.44 3.26 1.56 3.26 3.84 c0 3.4 -3.16 4.34 -5.62 4.34 c-2.66 0 -3.7 -0.8 -4.34 -1.38 c-1.22 -1.1 -1.46 -2.3 -1.46 -3.64 l1.82 0 c0 2.6 2.12 3.36 3.96 3.36 c1.4 0 3.76 -0.36 3.76 -2.42 c0 -1.5 -0.7 -1.98 -3.06 -2.54 l-2.94 -0.68 c-0.94 -0.22 -3.06 -0.88 -3.06 -3.38 c0 -2.24 1.46 -4.44 4.94 -4.44 c5.02 0 5.52 3 5.6 4.58 z M146.78799999999998 18.28 l0 1.72 l-10.6 0 l0 -14.36 l10.46 0 l0 1.72 l-8.52 0 l0 4.4 l7.86 0 l0 1.72 l-7.86 0 l0 4.8 l8.66 0 z M154.6 5.640000000000001 l0 12.64 l7.28 0 l0 1.72 l-9.22 0 l0 -14.36 l1.94 0 z M177.91199999999998 18.28 l0 1.72 l-10.6 0 l0 -14.36 l10.46 0 l0 1.72 l-8.52 0 l0 4.4 l7.86 0 l0 1.72 l-7.86 0 l0 4.8 l8.66 0 z M190.04399999999998 13.98 l0 -1.66 l6.3 0 l0 7.68 l-1.26 0 l-0.46 -1.86 c-0.98 1.36 -2.78 2.24 -4.74 2.24 c-2.46 0 -3.66 -0.9 -4.4 -1.62 c-2.2 -2.08 -2.26 -4.54 -2.26 -6.06 c0 -3.5 2.12 -7.44 6.8 -7.44 c2.68 0 5.66 1.52 6.08 4.74 l-1.88 0 c-0.62 -2.5 -2.72 -3.02 -4.3 -3.02 c-2.58 0 -4.7 2.06 -4.7 5.82 c0 2.92 0.96 5.92 4.78 5.92 c0.72 0 1.88 -0.08 2.94 -0.92 c1.26 -1 1.58 -2.28 1.58 -3.82 l-4.48 0 z M210.69599999999997 15.82 l-5.76 0 l-1.5 4.18 l-2 0 l5.4 -14.36 l2.2 0 l5.2 14.36 l-2.12 0 z M205.53599999999997 14.1 l4.46 0 l-2.12 -6.32 l-0.04 0 z M228.86799999999997 17.240000000000002 l0 -11.6 l1.88 0 l0 14.36 l-2.18 0 l-7.3 -11.6 l-0.04 0 l0 11.6 l-1.88 0 l0 -14.36 l2.3 0 l7.18 11.6 l0.04 0 z M249.07999999999996 9.96 l-1.88 0 c-0.54 -2.52 -2.64 -2.98 -4.02 -2.98 c-2.6 0 -4.7 1.92 -4.7 5.7 c0 3.38 1.2 5.98 4.76 5.98 c1.26 0 3.44 -0.6 4.1 -3.94 l1.88 0 c-0.8 5.42 -5.2 5.66 -6.28 5.66 c-3.26 0 -6.46 -2.12 -6.46 -7.64 c0 -4.42 2.52 -7.48 6.7 -7.48 c3.7 0 5.62 2.3 5.9 4.7 z M265.69199999999995 18.28 l0 1.72 l-10.6 0 l0 -14.36 l10.46 0 l0 1.72 l-8.52 0 l0 4.4 l7.86 0 l0 1.72 l-7.86 0 l0 4.8 l8.66 0 z"></path></g>
			</g>
		</svg>
	